<svg xmlns="http://www.w3.org/2000/svg" viewBox="0 0 344.74 144.18"><defs><style>.cls-1{fill:#19e58c;}.cls-2{fill:#fff;}</style></defs><title>Asset 2</title><g id="Layer_2" data-name="Layer 2"><g id="Layer_1-2" data-name="Layer 1"><path class="cls-1" d="M44.15,11.53a11.89,11.89,0,0,0-12.84,3.28,11.7,11.7,0,0,0-2.46,7.6c0,3.16.06,6.34.06,9.52,0,6.79.65,13.86-.56,20.58A25.31,25.31,0,0,1,12.47,71.86c.45-.18,2.27,1,2.69,1.24a24.67,24.67,0,0,1,3.43,2.2C25.83,80.82,28,90.72,28.81,99.38a122.71,122.71,0,0,1,0,18.29c-.25,4.47,0,9.77,3.72,12.92,3.08,2.62,7.88,2.93,11.61,1.78v11.56c-6.13.39-12.64.71-18-2.21-9.62-5.19-9.81-16.09-9.8-25.68,0-6.26,0-12.52-.44-18.76-.37-5.07-.78-10.44-4.45-14.3A16.92,16.92,0,0,0,0,78.18V65.67c.88,0,7.59,0,12-5.47a15.09,15.09,0,0,0,3.28-9.5l1-30.54a22,22,0,0,1,5-13.47A19,19,0,0,1,35.88,0h8.27Z"></path><path class="cls-1" d="M300.58,11.53a11.88,11.88,0,0,1,12.84,3.28,11.65,11.65,0,0,1,2.47,7.6c0,3.16-.06,6.34-.06,9.52,0,6.79-.65,13.86.56,20.58a25.29,25.29,0,0,0,15.88,19.35c-.46-.18-2.27,1-2.69,1.24a24.67,24.67,0,0,0-3.43,2.2c-7.24,5.52-9.41,15.42-10.22,24.08a121.38,121.38,0,0,0,0,18.29c.25,4.47,0,9.77-3.71,12.92-3.08,2.62-7.88,2.93-11.62,1.78l0,11.56c6.13.39,12.63.71,18-2.21,9.62-5.19,9.8-16.09,9.79-25.68,0-6.26,0-12.52.45-18.76.36-5.07.77-10.44,4.45-14.3a16.92,16.92,0,0,1,11.41-4.8V65.67c-.88,0-7.59,0-12-5.47a15.09,15.09,0,0,1-3.28-9.5l-1-30.54a22,22,0,0,0-5-13.47A19,19,0,0,0,308.86,0h-8.28Z"></path><path class="cls-2" d="M46.42,68.49h-5.8V27.43h9.91A15.94,15.94,0,0,1,66.47,43.37a15.94,15.94,0,0,1-15.94,16H46.42Zm0-15h4.11A10.16,10.16,0,0,0,60.7,43.37,10.19,10.19,0,0,0,50.53,33.23H46.42Z"></path><path class="cls-2" d="M76.57,45.83a11.59,11.59,0,0,1,4.52-.91v5.53a6,6,0,0,0-2.36.47,6.07,6.07,0,0,0-1.93,1.33,5.78,5.78,0,0,0-1.28,1.91A4,4,0,0,0,75,56.32V68.49H69.49V44.9H75v1.73A9.87,9.87,0,0,1,76.57,45.83Z"></path><path class="cls-2" d="M86.26,65a11.39,11.39,0,0,1-3.48-8.33,11.76,11.76,0,0,1,20.12-8.31,11.19,11.19,0,0,1,3.47,8.31A11.77,11.77,0,0,1,86.26,65Zm3.94-12.7a6.06,6.06,0,0,0-1.78,4.37,6.13,6.13,0,0,0,1.78,4.36,6,6,0,0,0,4.37,1.81,6.18,6.18,0,1,0,0-12.35A6,6,0,0,0,90.2,52.33Z"></path><path class="cls-2" d="M133,70.88q0,7.68-4.52,11.59a11.36,11.36,0,0,1-7.7,3V82.7l0-2.78a6.52,6.52,0,0,0,3.77-1.36q2.92-2.3,2.93-7.68V66.76a11.46,11.46,0,0,1-6.22,1.73,11.87,11.87,0,0,1-11.8-11.79,11.79,11.79,0,1,1,23.57,0ZM116.82,52.3a6.28,6.28,0,0,0,0,8.76,6.18,6.18,0,1,0,0-8.76Z"></path><path class="cls-2" d="M143.06,45.83a11.54,11.54,0,0,1,4.51-.91v5.53a6,6,0,0,0-2.35.47,6.11,6.11,0,0,0-1.94,1.33A5.78,5.78,0,0,0,142,54.16a4.12,4.12,0,0,0-.47,2.16V68.49H136V44.9h5.55v1.73A9.87,9.87,0,0,1,143.06,45.83Z"></path><path class="cls-2" d="M167.51,66.74a11.67,11.67,0,0,1-6.27,1.75,11.87,11.87,0,0,1-11.8-11.79,11.81,11.81,0,0,1,23.62,0V68.49h-5.55ZM156.87,52.33a6,6,0,0,0-1.79,4.37,6.1,6.1,0,0,0,1.79,4.36,6.18,6.18,0,1,0,0-8.73Z"></path><path class="cls-2" d="M199.87,44.9a9.26,9.26,0,0,1,6.88,2.86,9.37,9.37,0,0,1,2.86,6.9V68.49h-5.49V54.66a4.25,4.25,0,0,0-4.25-4.24,4.06,4.06,0,0,0-3,1.23,4.11,4.11,0,0,0-1.26,3V68.49h-5.57V54.66a4.24,4.24,0,0,0-7.23-3,4.2,4.2,0,0,0-1.23,3V68.49h-5.52V54.66a9.75,9.75,0,0,1,16.77-6.77A9.33,9.33,0,0,1,199.87,44.9Z"></path><path class="cls-2" d="M236.43,44.9a9.76,9.76,0,0,1,9.74,9.76V68.49h-5.5V54.66a4.23,4.23,0,0,0-4.24-4.24,4.08,4.08,0,0,0-3,1.23,4.14,4.14,0,0,0-1.25,3V68.49h-5.57V54.66a4.24,4.24,0,0,0-7.23-3,4.2,4.2,0,0,0-1.23,3V68.49h-5.52V54.66a9.74,9.74,0,0,1,16.76-6.77A9.37,9.37,0,0,1,236.43,44.9Z"></path><path class="cls-2" d="M261,68.49a12.06,12.06,0,0,1-4.31-.8,11.77,11.77,0,0,1-3.82-2.44,11.58,11.58,0,0,1-2.69-3.81,11.16,11.16,0,0,1-1-4.32v-.38a11.78,11.78,0,0,1,.8-4.31,11.92,11.92,0,0,1,2.41-3.82,10.85,10.85,0,0,1,3.84-2.68,11.34,11.34,0,0,1,4.44-1h.25a11.34,11.34,0,0,1,4.32.83,11.48,11.48,0,0,1,3.81,2.43,18.1,18.1,0,0,1,3.82,6.35l-15.81,7a7.56,7.56,0,0,0,1.65,1,6.36,6.36,0,0,0,2.24.43h.25a7.1,7.1,0,0,0,2.26-.53,6.51,6.51,0,0,0,2-1.4,7.35,7.35,0,0,0,1.26-2L272,61a12,12,0,0,1-2.41,3.82,12.07,12.07,0,0,1-8.16,3.71Zm-.25-18a6,6,0,0,0-2.28.53,6.45,6.45,0,0,0-2,1.4,8.82,8.82,0,0,0-1.23,2,6.29,6.29,0,0,0-.42,1.9l10.06-4.41a6,6,0,0,0-4-1.41Z"></path><path class="cls-2" d="M283,45.83a11.55,11.55,0,0,1,4.52-.91v5.53a5.88,5.88,0,0,0-4.29,1.8,5.63,5.63,0,0,0-1.28,1.91,4,4,0,0,0-.48,2.16V68.49h-5.55V44.9h5.55v1.73A9.87,9.87,0,0,1,283,45.83Z"></path><path class="cls-2" d="M292.56,66.59a6.67,6.67,0,0,1-2.41-5.25h5.47a1.53,1.53,0,0,0,1.08,1.45,2.73,2.73,0,0,0,1.08.23,3.79,3.79,0,0,0,1.66-.3,1.2,1.2,0,0,0,.73-1,1.24,1.24,0,0,0-.36-1.05,3.9,3.9,0,0,0-2.33-.81,8.94,8.94,0,0,1-5.72-2.61,6.5,6.5,0,0,1-1.83-4.54,7.74,7.74,0,0,1,2-5.32,7.21,7.21,0,0,1,5.72-2.51A7.82,7.82,0,0,1,305.74,53h-5.47a2.29,2.29,0,0,0-2.62-2.56q-2.25,0-2.25,2.34c0,1,.9,1.53,2.71,1.76,2.88.32,5,1.33,6.22,3a6.76,6.76,0,0,1,1.31,4.22,6,6,0,0,1-2.31,4.85,8.59,8.59,0,0,1-5.55,1.9A7.84,7.84,0,0,1,292.56,66.59Z"></path><path class="cls-2" d="M199.65,79.09V98.16h14v5.63h-14v10.76H194V73.49h23.75v5.6Z"></path><path class="cls-2" d="M220.81,111.09a11.4,11.4,0,0,1-3.49-8.33,11.8,11.8,0,0,1,23.6,0,11.77,11.77,0,0,1-20.11,8.33Zm3.94-12.7a6.18,6.18,0,0,0,4.37,10.54,5.94,5.94,0,0,0,4.37-1.81,6.19,6.19,0,0,0,0-8.73,5.94,5.94,0,0,0-4.37-1.81A6,6,0,0,0,224.75,98.39Z"></path><path class="cls-2" d="M251,91.89a11.71,11.71,0,0,1,4.51-.9v5.52a6.06,6.06,0,0,0-2.36.47,6.54,6.54,0,0,0-1.93,1.33,6,6,0,0,0-1.28,1.91,4.14,4.14,0,0,0-.48,2.16v12.17h-5.54V91h5.54v1.73A10.41,10.41,0,0,1,251,91.89Z"></path><path class="cls-2" d="M274.56,105.74l4.52,3.39a12.58,12.58,0,0,1-1.61,2,11.81,11.81,0,1,1,0-16.64,10.45,10.45,0,0,1,1.61,1.93l-4.52,3.39a5.94,5.94,0,0,0-1.05-1.38A6.16,6.16,0,0,0,263,102.76a6.13,6.13,0,0,0,6.15,6.17,6,6,0,0,0,4.39-1.81A5.68,5.68,0,0,0,274.56,105.74Z"></path><path class="cls-2" d="M294,114.55a12.15,12.15,0,0,1-4.32-.8,12,12,0,0,1-3.82-2.43,11.7,11.7,0,0,1-2.68-3.82,11.17,11.17,0,0,1-1-4.32v-.37a11.76,11.76,0,0,1,3.21-8.13A10.93,10.93,0,0,1,289.15,92a11.57,11.57,0,0,1,4.45-1h.25a11.61,11.61,0,0,1,4.32.83A11.48,11.48,0,0,1,302,94.22a18.25,18.25,0,0,1,3.81,6.35l-15.81,7a8.51,8.51,0,0,0,1.66,1,6.52,6.52,0,0,0,2.23.42h.25a7.1,7.1,0,0,0,2.26-.53,6.55,6.55,0,0,0,2-1.4,7.42,7.42,0,0,0,1.25-2l5.23,2a12.17,12.17,0,0,1-2.41,3.82,12.12,12.12,0,0,1-8.16,3.71Zm-.25-18a6.39,6.39,0,0,0-4.32,1.94,8.54,8.54,0,0,0-1.23,2,6.37,6.37,0,0,0-.43,1.91L297.79,98a6.73,6.73,0,0,0-1.63-1,6.4,6.4,0,0,0-2.36-.43Z"></path></g></g></svg>